<?xml version="1.0" encoding="utf-8"?>
<!-- Generator: Adobe Illustrator 25.4.1, SVG Export Plug-In . SVG Version: 6.00 Build 0)  -->
<svg version="1.1" id="图层_1" xmlns="http://www.w3.org/2000/svg" xmlns:xlink="http://www.w3.org/1999/xlink" x="0px" y="0px"
	 viewBox="0 0 200 200" style="enable-background:new 0 0 200 200;" xml:space="preserve">
<style type="text/css">
	.st0{fill:#F3C033;}
	.st1{fill:#FF7779;}
	.st2{fill:#279ACC;}
	.st3{display:none;fill:#303030;}
	.st4{fill:#303030;}
	.st5{fill:#20D471;}
	.st6{fill:none;stroke:#303030;stroke-width:20;stroke-linecap:round;stroke-linejoin:round;stroke-miterlimit:10;}
	.st7{font-family:'CommercialScriptBT-Regular';}
	.st8{font-size:55.2765px;}
	.st9{fill:none;}
	.st10{font-size:22.6814px;}
</style>
<rect x="151.3" y="141.4" class="st0" width="32" height="31.9"/>
<path class="st1" d="M19.5,98c0,13.8,11,24.8,24.8,24.8s24.8-11,24.8-24.8s-11-24.8-24.8-24.8S19.5,84.5,19.5,98z"/>
<path class="st2" d="M64.8,127.3c0,24.8,20.1,45.1,45.1,45.1s45.1-20.1,45.1-45.1l0,0c0-24.8-20.1-45.1-45.1-45.1
	S64.8,102.3,64.8,127.3z"/>
<path class="st3" d="M132.3,177.6h-8.8c-15.5,0-28.1-12.6-28.1-28.1V148c0-15.5,12.6-28.1,28.1-28.1h0.7
	c15.4,0.1,27.9,12.7,27.9,28.1c-0.1,3.2-2.7,5.7-5.8,5.6c-3.1-0.1-5.5-2.5-5.6-5.6c0-9.2-7.5-16.6-16.6-16.6h-0.7
	c-9.1,0.1-16.4,7.5-16.4,16.6v1.6c0,9.2,7.5,16.6,16.6,16.6h8.8c3.2,0.1,5.7,2.7,5.6,5.8C137.9,175.1,135.4,177.5,132.3,177.6
	L132.3,177.6z"/>
<path class="st4" d="M123.7,46.8h-19.8c-0.2,0-0.2,0-0.5,0c-7,0-12.8,5.9-12.6,13.1c0,7,5.9,12.8,13.1,12.6h19.8
	c20.5,0,37.4,16.7,37.4,37.4v3.6c0,20.5-16.5,37.2-37,37.4h-1.6c-20.7,0-37.4-16.7-37.4-37.4c-0.2-7-5.6-12.4-12.6-12.6
	c-7-0.2-12.8,5.4-13.1,12.6c0,34.7,28,63.1,62.7,63.3h1.6c34.7,0,63.1-28.4,63.3-63.1v-3.6C187,75.2,158.6,46.8,123.7,46.8z"/>
<path class="st5" d="M86.5,77.5c0,4.3,3.6,7.9,7.9,7.9s7.9-3.6,7.9-7.9s-3.6-7.9-7.9-7.9S86.5,73.2,86.5,77.5z"/>
<g>
	<line class="st6" x1="89.2" y1="82.2" x2="40.3" y2="54.3"/>
	<line class="st6" x1="40.3" y1="54.3" x2="40.3" y2="110.2"/>
	<line class="st6" x1="89.2" y1="82.2" x2="40.3" y2="110.2"/>
</g>
<text transform="matrix(1 0 0 1 94.3526 127.3077)" class="st4 st7 st8">M</text>
<rect x="86.4" y="10.9" class="st9" width="71.4" height="7"/>
<text transform="matrix(1 0 0 1 130.3928 137.1893)" class="st0 st7 st10">A</text>
</svg>
